<svg xmlns="http://www.w3.org/2000/svg" fill="none" viewBox="0 98.51546459627329 1836.3329999999999 212.8695652173913" style="max-height: 500px" width="1836.3329999999999" height="212.8695652173913">
<path fill="#FFEB3B" d="M235.576 102.421C248.299 102.421 260.897 105.052 272.651 110.164C284.405 115.277 295.086 122.77 304.082 132.216C313.078 141.662 320.215 152.877 325.083 165.219C329.952 177.561 332.458 190.789 332.458 204.149C332.458 217.508 329.952 230.736 325.083 243.078C320.215 255.42 313.078 266.635 304.082 276.081C295.086 285.527 284.405 293.02 272.651 298.133C260.897 303.245 248.299 305.876 235.576 305.876L235.576 204.148L235.576 102.421Z"/>
<path fill="#2196F3" d="M235.578 103.116C235.754 130.095 246.129 155.896 264.422 174.843C282.714 193.79 307.426 204.33 333.12 204.146C358.814 203.962 383.386 193.067 401.431 173.86C419.475 154.652 429.513 128.705 429.338 101.725L332.458 102.421L235.578 103.116Z"/>
<path fill="#1976D2" d="M235.576 102.421C248.299 102.421 260.897 105.052 272.651 110.164C284.405 115.276 295.086 122.769 304.082 132.216C313.078 141.662 320.215 152.876 325.084 165.219C329.952 177.561 332.458 190.789 332.458 204.148C278.951 204.148 235.576 158.603 235.576 102.421Z"/>
<path fill="#2196F3" d="M35.8994 108.215C48.5498 106.467 61.4047 107.351 73.7295 110.819C86.0542 114.286 97.6077 120.269 107.73 128.425C117.853 136.581 126.347 146.751 132.727 158.354C139.106 169.957 143.248 182.765 144.913 196.048C146.579 209.331 145.736 222.829 142.434 235.77C140.091 244.95 136.542 253.723 131.904 261.841H77.6377L76.9697 261.085L48.5811 209.365L0 121.011C11.0501 114.312 23.249 109.964 35.8994 108.215Z"/>
<path fill="#FFEB3B" d="M209.283 121.011C198.233 114.312 186.035 109.964 173.384 108.216C160.734 106.467 147.879 107.352 135.554 110.819C123.23 114.287 111.676 120.269 101.553 128.425C91.4302 136.581 82.9364 146.751 76.5566 158.354C70.1768 169.957 66.0359 182.765 64.3704 196.049C62.705 209.332 63.5475 222.829 66.85 235.771C70.1524 248.712 75.85 260.843 83.6176 271.473C91.3851 282.102 94.5506 284.122 104.621 292.43L132.314 261.086L160.702 209.365L209.283 121.011Z"/>
<path fill="#1976D2" d="M104.617 126.057C105.651 126.825 106.673 127.614 107.68 128.425C117.803 136.581 126.296 146.751 132.676 158.354C139.056 169.956 143.197 182.766 144.863 196.049C146.528 209.332 145.686 222.829 142.383 235.771C139.081 248.712 133.382 260.844 125.615 271.473C119.66 279.622 112.576 286.763 104.616 292.672C96.6557 286.763 89.5725 279.621 83.6176 271.473C81.4156 268.459 79.3808 265.325 77.519 262.086L75.6449 258.678C71.8497 251.46 68.8915 243.77 66.85 235.771C63.5476 222.829 62.7051 209.332 64.3705 196.049C66.036 182.766 70.1772 169.956 76.557 158.354C82.9368 146.751 91.4304 136.581 101.553 128.425C102.56 127.614 103.582 126.825 104.617 126.057Z"/>
<path fill="#2196F3" d="M600.2 132.6L550.4 273H507.6L457.8 132.6H494.2L529 238.6L564 132.6H600.2ZM607.694 217C607.694 205.533 609.827 195.467 614.094 186.8C618.494 178.133 624.427 171.467 631.894 166.8C639.36 162.133 647.694 159.8 656.894 159.8C664.76 159.8 671.627 161.4 677.494 164.6C683.494 167.8 688.094 172 691.294 177.2V161.4H725.494V273H691.294V257.2C687.96 262.4 683.294 266.6 677.294 269.8C671.427 273 664.56 274.6 656.694 274.6C647.627 274.6 639.36 272.267 631.894 267.6C624.427 262.8 618.494 256.067 614.094 247.4C609.827 238.6 607.694 228.467 607.694 217ZM691.294 217.2C691.294 208.667 688.894 201.933 684.094 197C679.427 192.067 673.694 189.6 666.894 189.6C660.094 189.6 654.294 192.067 649.494 197C644.827 201.8 642.494 208.467 642.494 217C642.494 225.533 644.827 232.333 649.494 237.4C654.294 242.333 660.094 244.8 666.894 244.8C673.694 244.8 679.427 242.333 684.094 237.4C688.894 232.467 691.294 225.733 691.294 217.2ZM795.636 274.6C785.903 274.6 777.236 272.933 769.636 269.6C762.036 266.267 756.036 261.733 751.636 256C747.236 250.133 744.769 243.6 744.236 236.4H778.036C778.436 240.267 780.236 243.4 783.436 245.8C786.636 248.2 790.569 249.4 795.236 249.4C799.503 249.4 802.769 248.6 805.036 247C807.436 245.267 808.636 243.067 808.636 240.4C808.636 237.2 806.969 234.867 803.636 233.4C800.303 231.8 794.903 230.067 787.436 228.2C779.436 226.333 772.769 224.4 767.436 222.4C762.103 220.267 757.503 217 753.636 212.6C749.769 208.067 747.836 202 747.836 194.4C747.836 188 749.569 182.2 753.036 177C756.636 171.667 761.836 167.467 768.636 164.4C775.569 161.333 783.769 159.8 793.236 159.8C807.236 159.8 818.236 163.267 826.236 170.2C834.369 177.133 839.036 186.333 840.236 197.8H808.636C808.103 193.933 806.369 190.867 803.436 188.6C800.636 186.333 796.903 185.2 792.236 185.2C788.236 185.2 785.169 186 783.036 187.6C780.903 189.067 779.836 191.133 779.836 193.8C779.836 197 781.503 199.4 784.836 201C788.303 202.6 793.636 204.2 800.836 205.8C809.103 207.933 815.836 210.067 821.036 212.2C826.236 214.2 830.769 217.533 834.636 222.2C838.636 226.733 840.703 232.867 840.836 240.6C840.836 247.133 838.969 253 835.236 258.2C831.636 263.267 826.369 267.267 819.436 270.2C812.636 273.133 804.703 274.6 795.636 274.6ZM907.159 274.6C897.426 274.6 888.759 272.933 881.159 269.6C873.559 266.267 867.559 261.733 863.159 256C858.759 250.133 856.293 243.6 855.759 236.4H889.559C889.959 240.267 891.759 243.4 894.959 245.8C898.159 248.2 902.093 249.4 906.759 249.4C911.026 249.4 914.293 248.6 916.559 247C918.959 245.267 920.159 243.067 920.159 240.4C920.159 237.2 918.493 234.867 915.159 233.4C911.826 231.8 906.426 230.067 898.959 228.2C890.959 226.333 884.293 224.4 878.959 222.4C873.626 220.267 869.026 217 865.159 212.6C861.293 208.067 859.359 202 859.359 194.4C859.359 188 861.093 182.2 864.559 177C868.159 171.667 873.359 167.467 880.159 164.4C887.093 161.333 895.293 159.8 904.759 159.8C918.759 159.8 929.759 163.267 937.759 170.2C945.893 177.133 950.559 186.333 951.759 197.8H920.159C919.626 193.933 917.893 190.867 914.959 188.6C912.159 186.333 908.426 185.2 903.759 185.2C899.759 185.2 896.693 186 894.559 187.6C892.426 189.067 891.359 191.133 891.359 193.8C891.359 197 893.026 199.4 896.359 201C899.826 202.6 905.159 204.2 912.359 205.8C920.626 207.933 927.359 210.067 932.559 212.2C937.759 214.2 942.293 217.533 946.159 222.2C950.159 226.733 952.226 232.867 952.359 240.6C952.359 247.133 950.493 253 946.759 258.2C943.159 263.267 937.893 267.267 930.959 270.2C924.159 273.133 916.226 274.6 907.159 274.6ZM1078.48 215.4C1078.48 218.6 1078.28 221.933 1077.88 225.4H1000.48C1001.02 232.333 1003.22 237.667 1007.08 241.4C1011.08 245 1015.95 246.8 1021.68 246.8C1030.22 246.8 1036.15 243.2 1039.48 236H1075.88C1074.02 243.333 1070.62 249.933 1065.68 255.8C1060.88 261.667 1054.82 266.267 1047.48 269.6C1040.15 272.933 1031.95 274.6 1022.88 274.6C1011.95 274.6 1002.22 272.267 993.683 267.6C985.149 262.933 978.483 256.267 973.683 247.6C968.883 238.933 966.483 228.8 966.483 217.2C966.483 205.6 968.816 195.467 973.483 186.8C978.283 178.133 984.949 171.467 993.483 166.8C1002.02 162.133 1011.82 159.8 1022.88 159.8C1033.68 159.8 1043.28 162.067 1051.68 166.6C1060.08 171.133 1066.62 177.6 1071.28 186C1076.08 194.4 1078.48 204.2 1078.48 215.4ZM1043.48 206.4C1043.48 200.533 1041.48 195.867 1037.48 192.4C1033.48 188.933 1028.48 187.2 1022.48 187.2C1016.75 187.2 1011.88 188.867 1007.88 192.2C1004.02 195.533 1001.62 200.267 1000.68 206.4H1043.48ZM1132.11 217C1132.11 205.533 1134.24 195.467 1138.51 186.8C1142.91 178.133 1148.84 171.467 1156.31 166.8C1163.77 162.133 1172.11 159.8 1181.31 159.8C1189.17 159.8 1196.04 161.4 1201.91 164.6C1207.91 167.8 1212.51 172 1215.71 177.2V161.4H1249.91V273H1215.71V257.2C1212.37 262.4 1207.71 266.6 1201.71 269.8C1195.84 273 1188.97 274.6 1181.11 274.6C1172.04 274.6 1163.77 272.267 1156.31 267.6C1148.84 262.8 1142.91 256.067 1138.51 247.4C1134.24 238.6 1132.11 228.467 1132.11 217ZM1215.71 217.2C1215.71 208.667 1213.31 201.933 1208.51 197C1203.84 192.067 1198.11 189.6 1191.31 189.6C1184.51 189.6 1178.71 192.067 1173.91 197C1169.24 201.8 1166.91 208.467 1166.91 217C1166.91 225.533 1169.24 232.333 1173.91 237.4C1178.71 242.333 1184.51 244.8 1191.31 244.8C1198.11 244.8 1203.84 242.333 1208.51 237.4C1213.31 232.467 1215.71 225.733 1215.71 217.2ZM1218.31 130.2V153.8L1170.11 133.6V107L1218.31 130.2ZM1424.03 177.8C1424.03 185.933 1422.17 193.4 1418.43 200.2C1414.7 206.867 1408.97 212.267 1401.23 216.4C1393.5 220.533 1383.9 222.6 1372.43 222.6H1351.23V273H1317.03V132.6H1372.43C1383.63 132.6 1393.1 134.533 1400.83 138.4C1408.57 142.267 1414.37 147.6 1418.23 154.4C1422.1 161.2 1424.03 169 1424.03 177.8ZM1369.83 195.4C1376.37 195.4 1381.23 193.867 1384.43 190.8C1387.63 187.733 1389.23 183.4 1389.23 177.8C1389.23 172.2 1387.63 167.867 1384.43 164.8C1381.23 161.733 1376.37 160.2 1369.83 160.2H1351.23V195.4H1369.83ZM1476.04 180C1480.04 173.867 1485.04 169.067 1491.04 165.6C1497.04 162 1503.7 160.2 1511.04 160.2V196.4H1501.64C1493.1 196.4 1486.7 198.267 1482.44 202C1478.17 205.6 1476.04 212 1476.04 221.2V273H1441.84V161.4H1476.04V180ZM1520.58 217C1520.58 205.533 1522.72 195.467 1526.98 186.8C1531.38 178.133 1537.32 171.467 1544.78 166.8C1552.25 162.133 1560.58 159.8 1569.78 159.8C1577.65 159.8 1584.52 161.4 1590.38 164.6C1596.38 167.8 1600.98 172 1604.18 177.2V161.4H1638.38V273H1604.18V257.2C1600.85 262.4 1596.18 266.6 1590.18 269.8C1584.32 273 1577.45 274.6 1569.58 274.6C1560.52 274.6 1552.25 272.267 1544.78 267.6C1537.32 262.8 1531.38 256.067 1526.98 247.4C1522.72 238.6 1520.58 228.467 1520.58 217ZM1604.18 217.2C1604.18 208.667 1601.78 201.933 1596.98 197C1592.32 192.067 1586.58 189.6 1579.78 189.6C1572.98 189.6 1567.18 192.067 1562.38 197C1557.72 201.8 1555.38 208.467 1555.38 217C1555.38 225.533 1557.72 232.333 1562.38 237.4C1567.18 242.333 1572.98 244.8 1579.78 244.8C1586.58 244.8 1592.32 242.333 1596.98 237.4C1601.78 232.467 1604.18 225.733 1604.18 217.2ZM1680.33 149.8C1674.33 149.8 1669.39 148.067 1665.53 144.6C1661.79 141 1659.93 136.6 1659.93 131.4C1659.93 126.067 1661.79 121.667 1665.53 118.2C1669.39 114.6 1674.33 112.8 1680.33 112.8C1686.19 112.8 1690.99 114.6 1694.73 118.2C1698.59 121.667 1700.53 126.067 1700.53 131.4C1700.53 136.6 1698.59 141 1694.73 144.6C1690.99 148.067 1686.19 149.8 1680.33 149.8ZM1697.33 161.4V273H1663.13V161.4H1697.33ZM1715.31 217C1715.31 205.533 1717.44 195.467 1721.71 186.8C1726.11 178.133 1732.04 171.467 1739.51 166.8C1746.98 162.133 1755.31 159.8 1764.51 159.8C1772.38 159.8 1779.24 161.4 1785.11 164.6C1791.11 167.8 1795.71 172 1798.91 177.2V161.4H1833.11V273H1798.91V257.2C1795.58 262.4 1790.91 266.6 1784.91 269.8C1779.04 273 1772.18 274.6 1764.31 274.6C1755.24 274.6 1746.98 272.267 1739.51 267.6C1732.04 262.8 1726.11 256.067 1721.71 247.4C1717.44 238.6 1715.31 228.467 1715.31 217ZM1798.91 217.2C1798.91 208.667 1796.51 201.933 1791.71 197C1787.04 192.067 1781.31 189.6 1774.51 189.6C1767.71 189.6 1761.91 192.067 1757.11 197C1752.44 201.8 1750.11 208.467 1750.11 217C1750.11 225.533 1752.44 232.333 1757.11 237.4C1761.91 242.333 1767.71 244.8 1774.51 244.8C1781.31 244.8 1787.04 242.333 1791.71 237.4C1796.51 232.467 1798.91 225.733 1798.91 217.2Z"/>
</svg>