<svg width="800" height="373" viewBox="0 0 800 373" fill="none" xmlns="http://www.w3.org/2000/svg">
<path d="M0.5 155.5L19 135.5L27 129L31 122.5L42 116.5L47 106.5L57 97.5L61 86L65.5 84H97L114.5 101.5L137.5 129L140.5 133.5H165.5L170.5 145L178 146.5L197.5 152.5L217.5 149.5H229.5L243 145L265 140.5L274.5 132L315.5 130L327.5 124L345 121.5C348 118.667 357.432 110.84 364 116C371 121.5 370.5 122 381 132L412.5 159.5L409.5 166.5L447.5 200.5C451 203 461.3 207 474.5 203C480.9 207.4 487.167 209.167 489.5 209.5C492 211.333 502.2 214.9 523 214.5C541 221.7 555.5 224.167 560.5 224.5C567.833 221 583.8 218.2 589 235C591.8 240.2 603.5 245.5 609 247.5C611.5 251.5 611.9 258.5 593.5 254.5C587.5 248.9 579.333 241.167 576 238L568.5 241H539.5L529.5 247.5L521 250L514.5 261L495.5 290V297.5C491.833 300.167 483.5 305.4 479.5 305C475.5 304.6 466.167 324.167 462 334L443.5 350L436 361L411 372L398 363L388.5 361L380.5 357.5C372 359.833 354.1 363.8 350.5 361C346.1 362.6 341.333 368 339.5 370.5L316.5 369L307 359.5L283.5 357.5L271.5 350H247L241 343L198 327.5L186.5 318H164.5L160 315.5H152C142.5 303.667 120 279.8 106 279C97.5 273 81.5 262 72 264C64.4 265.6 42.8333 236.333 33 221.5L21.5 211L17 199C18 189.5 16.1 169.6 0.5 166V155.5Z" fill="#D9D9D9"/>
<path d="M0.5 155.5L19 135.5L27 129L31 122.5L42 116.5L47 106.5L57 97.5L61 86L65.5 84H97L114.5 101.5L137.5 129L140.5 133.5H165.5L170.5 145L178 146.5L197.5 152.5L217.5 149.5H229.5L243 145L265 140.5L274.5 132L315.5 130L327.5 124L345 121.5C348 118.667 357.432 110.84 364 116C371 121.5 370.5 122 381 132L412.5 159.5L409.5 166.5L447.5 200.5C451 203 461.3 207 474.5 203C480.9 207.4 487.167 209.167 489.5 209.5C492 211.333 502.2 214.9 523 214.5C541 221.7 555.5 224.167 560.5 224.5C567.833 221 583.8 218.2 589 235C591.8 240.2 603.5 245.5 609 247.5C611.5 251.5 611.9 258.5 593.5 254.5C587.5 248.9 579.333 241.167 576 238L568.5 241H539.5L529.5 247.5L521 250L514.5 261L495.5 290V297.5C491.833 300.167 483.5 305.4 479.5 305C475.5 304.6 466.167 324.167 462 334L443.5 350L436 361L411 372L398 363L388.5 361L380.5 357.5C372 359.833 354.1 363.8 350.5 361C346.1 362.6 341.333 368 339.5 370.5L316.5 369L307 359.5L283.5 357.5L271.5 350H247L241 343L198 327.5L186.5 318H164.5L160 315.5H152C142.5 303.667 120 279.8 106 279C97.5 273 81.5 262 72 264C64.4 265.6 42.8333 236.333 33 221.5L21.5 211L17 199C18 189.5 16.1 169.6 0.5 166M0.5 155.5C0.5 157.667 0.5 162.8 0.5 166M0.5 155.5V166" stroke="black"/>
<path d="M791 50.5C792.333 52.6667 794.9 58.7 794.5 65.5C791.7 68.3 778.833 64.3333 773.5 62L754.5 64.5L738 76.5C731.5 83.6667 716.1 98.7 706.5 101.5C689.7 98.3 690.5 83.5 693 76.5C697.5 73.8333 705.8 67.7 703 64.5C700.2 61.3 701.167 51.5 702 47C705.833 45.6667 713.5 42.2 713.5 39C713.5 35 724 35 724 31C724 27.8 737.667 19.3333 744.5 15.5C746.5 13.5 750.2 8.8 749 6C747.5 2.5 757 -0.999996 756 3C755.2 6.2 772.667 14 781.5 17.5C784.667 16.5 792.1 14.7 796.5 15.5C800.9 16.3 798.333 18.1667 796.5 19L791 28V31L794.5 44.5L791 50.5Z" fill="#D9D9D9" stroke="black"/>
</svg>
