<svg width="801" height="373" viewBox="0 0 801 373" fill="none" xmlns="http://www.w3.org/2000/svg">
<path d="M1 155.5L19.5 135.5L27.5 129L31.5 122.5L39.5 118.136L42.5 116.5L47.5 106.5L57.5 97.5L61.5 86L66 84H97.5L115 101.5L138 129L141 133.5H166L171 145L178.5 146.5L198 152.5L203.5 151.675L218 149.5H230L243.5 145L265.5 140.5L275 132L295.5 131L316 130L328 124L345.5 121.5C348.5 118.667 357.932 110.84 364.5 116C371.5 121.5 371 122 381.5 132L413 159.5L410 166.5L427.324 182L448 200.5C451.5 203 461.8 207 475 203C481.4 207.4 487.667 209.167 490 209.5C492.5 211.333 502.7 214.9 523.5 214.5C541.5 221.7 556 224.167 561 224.5C568.333 221 584.3 218.2 589.5 235C592.3 240.2 604 245.5 609.5 247.5C612 251.5 612.4 258.5 594 254.5C588 248.9 579.833 241.167 576.5 238L569 241H540L530 247.5L521.5 250L515 261L496 290V293.75V297.5C492.333 300.167 484 305.4 480 305C476 304.6 466.667 324.167 462.5 334L444 350L436.5 361L411.5 372L398.5 363L389 361L381 357.5C372.5 359.833 354.6 363.8 351 361C346.6 362.6 341.833 368 340 370.5L317 369L307.5 359.5L295.75 358.5L284 357.5L272 350H247.5L241.5 343L232 339.576L198.5 327.5L187 318H176H165L160.5 315.5H152.5C146.251 307.717 134.379 294.728 123 286.52C117.079 282.25 111.292 279.274 106.5 279C98 273 82 262 72.5 264C64.9 265.6 43.3333 236.333 33.5 221.5L22 211L17.5 199C18.5 189.5 16.6 169.6 1 166V155.5Z" fill="#E9EEED"/>
<path d="M1 155.5L19.5 135.5L27.5 129L31.5 122.5L39.5 118.136M1 155.5C1 157.667 1 162.8 1 166M1 155.5V166M398.5 363L411.5 372L436.5 361L444 350L462.5 334C466.667 324.167 476 304.6 480 305C484 305.4 492.333 300.167 496 297.5V293.75M398.5 363L389 361L381 357.5C372.5 359.833 354.6 363.8 351 361C346.6 362.6 341.833 368 340 370.5L317 369L307.5 359.5L295.75 358.5M398.5 363C399 358.667 400.5 349.2 402.5 346C405 342 405 343 402.5 339.5C400.5 336.7 396.667 332.667 395 331L393 318L389 305C388.833 304.333 388.5 301.5 388.5 295.5C380.5 298.7 376.5 295.667 375.5 293.75L368.5 282M1 166C16.6 169.6 18.5 189.5 17.5 199L22 211L33.5 221.5C43.3333 236.333 64.9 265.6 72.5 264C82 262 98 273 106.5 279C111.292 279.274 117.079 282.25 123 286.52M427.324 182L410 166.5L413 159.5L381.5 132C371 122 371.5 121.5 364.5 116C357.932 110.84 348.5 118.667 345.5 121.5L328 124L316 130L295.5 131M427.324 182L448 200.5C451.5 203 461.8 207 475 203C481.4 207.4 487.667 209.167 490 209.5C492.5 211.333 502.7 214.9 523.5 214.5C541.5 221.7 556 224.167 561 224.5C568.333 221 584.3 218.2 589.5 235C592.3 240.2 604 245.5 609.5 247.5C612 251.5 612.4 258.5 594 254.5C588 248.9 579.833 241.167 576.5 238L569 241H540L530 247.5L521.5 250L515 261L496 290V293.75M427.324 182C425.716 183.333 422.8 188.2 424 197C425.2 205.8 418.833 209 415.5 209.5C412.333 209 406.1 211.3 406.5 224.5C407 241 401 242.5 393 244C385 245.5 375.5 243.5 375.5 258C375.5 269.6 365.5 270.833 360.5 270M360.5 270L368.5 282M360.5 270C359.667 268.5 357.6 264.9 356 262.5C345.6 262.9 337.667 255.667 335 252M368.5 282L388.5 271.5C392.833 271.667 402.5 269.8 406.5 261C410.5 252.2 430 253 436.5 261L480 286.5C483.667 289.333 492 294.75 496 293.75M295.75 358.5L284 357.5L272 350H247.5L241.5 343L232 339.576M295.75 358.5L302.5 329.5H305L307.5 322C308.083 319.167 307.9 313.1 302.5 311.5C302.5 308.7 300.833 303.333 300 301L305 286.5V278.5L311 275C313.667 269.167 321.5 257.1 331.5 255.5L335 252M295.5 131L275 132L265.5 140.5L243.5 145L230 149.5H218L203.5 151.675M295.5 131L313.5 154.5V186.5C308.833 191.667 301.8 202.9 311 206.5C315 211.7 310 218 307 220.5M307 220.5H321C323.5 221.167 327 223.4 321 227C325.5 231 333.5 236 326 240C320 243.2 327.167 246.333 331.5 247.5C333.333 247.833 336.6 249.2 335 252M307 220.5L280.5 228.5M280.5 228.5C276.333 226.667 266 223.8 258 227C250 230.2 246 226.333 245 224C242.833 223.167 238.1 222.6 236.5 227C234.9 231.4 230.833 231.5 229 231L223 234.5H217M280.5 228.5L282 237.5L278 250.5L280.5 259.5L275 265L273.5 272.5L268 280.5C265.833 282.507 261.5 288.316 261.5 295.5C264.3 305.1 256.333 314.5 252 318V327.5L236.5 329.5L232 339.576M217 234.5C216.167 230.5 209.5 219.8 189.5 209M217 234.5L183.5 295.5L176 318M189.5 209C189.5 205.4 186.5 198.167 185 195L196 173.5V165L203.5 151.675M189.5 209L168.5 221.5L151.5 235.5L146.5 250.5L130.5 266.5C128.167 272.5 123.4 284.904 123 286.52M203.5 151.675L198 152.5L178.5 146.5L171 145L166 133.5H141L138 129L115 101.5L97.5 84H66L61.5 86L57.5 97.5L47.5 106.5L42.5 116.5L39.5 118.136M188.209 203L171 205.5C163.167 207.667 145.6 210.7 138 205.5C134.4 205.5 129.833 205.5 128 205.5L120.5 199V195L110 170.5C112 167 113.3 159.5 102.5 157.5C99.7 157.5 97 160.5 96 162C93.6667 162.167 87.5 161.5 81.5 157.5C79.5 157.5 75 157.5 73 157.5L39.5 118.136M176 318H187L198.5 327.5L232 339.576M176 318H165L160.5 315.5H152.5C146.251 307.717 134.379 294.728 123 286.52" stroke="#777877"/>
<path d="M792 50.5C793.333 52.6667 795.9 58.7 795.5 65.5C792.7 68.3 779.833 64.3333 774.5 62L755.5 64.5L739 76.5C732.5 83.6667 717.1 98.7 707.5 101.5C690.7 98.3 691.5 83.5 694 76.5C698.5 73.8333 706.8 67.7 704 64.5C701.2 61.3 702.167 51.5 703 47C706.833 45.6667 714.5 42.2 714.5 39C714.5 35 725 35 725 31C725 27.8 738.667 19.3333 745.5 15.5C747.5 13.5 751.2 8.8 750 6C748.5 2.5 758 -0.999996 757 3C756.2 6.2 773.667 14 782.5 17.5C785.667 16.5 793.1 14.7 797.5 15.5C801.9 16.3 799.333 18.1667 797.5 19L792 28V31L795.5 44.5L792 50.5Z" fill="#E9EEED" stroke="#777877"/>
</svg>
